<?xml version="1.0" standalone="no"?>
<!DOCTYPE svg PUBLIC "-//W3C//DTD SVG 1.1//EN" "http://www.w3.org/Graphics/SVG/1.1/DTD/svg11.dtd">
<svg xmlns="http://www.w3.org/2000/svg" id="Layer_2" data-name="Layer 2" viewBox="0 0 19.29 30.06" width="19.290000915527344" height="30.059999465942383">
  <defs>
    <style>
      .cls-1 {
        fill: #535454;
      }

      .cls-2 {
        fill: none;
        stroke: #00abb3;
        stroke-miterlimit: 10;
        stroke-width: 1.5px;
      }
    </style>
  </defs>
  <g id="Layer_1-2" data-name="Layer 1">
    <g>
      <path class="cls-1" d="m4.68,22.95v.08L.03,7.11c-.15-.52.27-1.02.81-.96l2.41.28c.42.05.71.42.66.84-.55,4.08-.71,9.6.77,15.68Z"/>
      <path class="cls-2" d="m17.26,25.61l-.77.39c-.33.17-.76.08-.95-.23-.8-1.31-2.49-1.9-3.92-1.27-1.45.61-2.2,2.25-1.77,3.75.1.34-.12.7-.45.84l-.11.04c-1.25.52-2.67-.12-3.14-1.38-.61-1.63-1.09-3.23-1.47-4.8-1.57-6.46-1.3-12.29-.66-16.43.23-1.61.53-2.97.8-4.01.34-1.32,1.73-2.06,3.03-1.63l.15.05c.36.12.54.49.48.86-.24,1.52.4,2.97,1.49,3.57,1.42.8,3.6.18,4.65-1.63.2-.34.58-.52.95-.38l.23.09c1.14.43,1.76,1.64,1.46,2.82-1.61,6.32.13,13.25,1.18,16.52.36,1.11-.13,2.31-1.17,2.84Z"/>
    </g>
  </g>
</svg>